# xmcd
#
# Track frame offsets:
# 150
# 10763
# 31185
# 53710
# 72189
# 84703
# 102095
# 123005
# 140003
# 152254
# 171448
# 183478
# 198681
# 215446
#
# Disc length: 3171 seconds
#
# Revision: 1
# Processed by: cddbd v1.5.2PL0 Copyright (c) Steve Scherf et al.
# Submitted via: CedeCatalogueitor 2.6.0.6 http://personales.ya.com/cdcatalogueitor
#
DISCID=b90c610e
DTITLE=Watermelon Slim - No Paid Holidays
DYEAR=2008
DGENRE=
TTITLE0=Blues for Howard
TTITLE1=Archetypal Blues No. 2
TTITLE2=Call My Job
TTITLE3=Dad In the Distance
TTITLE4=You're the One I Need
TTITLE5=Bubba's Blues
TTITLE6=And When I Die
TTITLE7=Into the Sunset
TTITLE8=Gearzy's Boogie
TTITLE9=This Traveling Life
TTITLE10=Max the Baseball Clown
TTITLE11=The Bloody Burmese Blues
TTITLE12=I've Got a Toothache
TTITLE13=Everybody's Down on Me
EXTD=
EXTT0=
EXTT1=
EXTT2=
EXTT3=
EXTT4=
EXTT5=
EXTT6=
EXTT7=
EXTT8=
EXTT9=
EXTT10=
EXTT11=
EXTT12=
EXTT13=
PLAYORDER=
